<svg fill="currentColor" viewBox="-15 -20 100 135" aria-hidden="true" role="img" class="iconify iconify--logos">
  <path fill="currentColor" d="M70.890696 195.63292c-.324266-.32427-.423333-9.75573-.423333-40.30246v-39.87912l7.169006-7.14615 7.169006-7.14616h26.979885c20.51398 0 27.08134.10145 27.40321.42333.61504.61504.61504 93.43552 0 94.05056-.6139.6139-67.683872.6139-68.297774 0zm35.842224-11.99445c.23283-.23283.42333-.7567.42333-1.16416 0-1.56849-.16741-1.5875-13.980078-1.5875-11.469095 0-13.203664.0703-13.687777.55436-.304901.3049-.554365.76981-.554365 1.03314 0 .26332.249464.72823.554365 1.03313.484113.48412 2.218682.55437 13.687777.55437 9.744508 0 13.242648-.10924 13.556748-.42334zm23.98889-10.93611c.54416-.54416.54416-1.78417 0-2.32833-.32134-.32134-6.47767-.42333-25.55119-.42333-22.373139 0-25.188634.0608-25.682225.55436-.650074.65008-.685322 1.01122-.189176 1.93827.355845.6649 1.013067.68237 25.682221.68237 19.22066 0 25.41897-.10194 25.74037-.42334zm-.00078-10.68066c.29247-.11224.42747-.61276.35845-1.329l-.11073-1.14895-25.53743-.0905c-19.084545-.0676-25.663002.0137-26.034384.32191-.682871.56673-.440125 1.79137.441877 2.22924.742045.36838 49.923727.38514 50.882217.0173zm.00078-10.83878c.54416-.54416.54416-1.78418 0-2.32834-.61252-.61252-50.751927-.61252-51.364447 0-.585919.58592-.529199 1.53708.131032 2.19731.493591.49359 3.309086.55436 25.682225.55436 19.07352 0 25.22985-.102 25.55119-.42333zm-2.21053-10.75154c1.12763-1.12762-.01-5.59491-2.13327-8.37901-1.81765-2.38306-5.93919-4.39061-6.82279-3.32329-.21664.26168-.80727.99172-1.31251 1.62231-.75971.94819-1.16193 1.14653-2.32507 1.14653-1.4231 0-1.64992-.16273-3.41639-2.45092-.62826-.81382-.749-.83872-2.10167-.43346-3.61301 1.08249-6.85371 5.22416-7.34262 9.38402-.37611 3.20009-1.11309 3.02536 12.76034 3.02536 10.85451 0 12.16344-.061 12.69398-.59154zm-10.59647-13.91493c3.11059-.86355 5.45648-4.59943 4.92705-7.84646-.90661-5.56025-7.97123-7.81982-11.81823-3.77998-2.79439 2.93447-2.74602 6.92517.11973 9.87794 1.8446 1.90061 4.11333 2.48643 6.77145 1.7485z" transform="translate(-70.467363 -101.15903)"/>
</svg>
